<svg xmlns="http://www.w3.org/2000/svg" width="32.223" height="30" viewBox="0 0 32.223 30">
  <g id="Logo_small" transform="translate(0 0)">
    <g id="Контур_5" data-name="Контур 5">
      <path id="Контур_11" data-name="Контур 11" d="M703.389,228.776l-25.839-.017,6.434-29.929,25.789-.05Z" transform="translate(-677.55 -198.78)" fill="#d81b31"/>
    </g>
    <g id="Сгруппировать_4" data-name="Сгруппировать 4" transform="translate(11.089 7.951)">
      <g id="Эллипс_1" data-name="Эллипс 1">
        <path id="Контур_12" data-name="Контур 12" d="M727.569,248.4a15.565,15.565,0,0,1,14.949-19.855,13.5,13.5,0,0,1,2.071.145l.465-2.122a17.723,17.723,0,0,0-19.725,21.864Z" transform="translate(-724.794 -226.389)"/>
      </g>
      <g id="Контур_7" data-name="Контур 7" transform="translate(6.896 0.232)">
        <path id="Контур_13" data-name="Контур 13" d="M775.148,243.762c1.739-8.2,6.355-13.262,10.106-13.575l.467-2.194c-5.29-.1-10.8,6.394-12.7,15.319a28.117,28.117,0,0,0-.641,6.5h2.146A26.918,26.918,0,0,1,775.148,243.762Z" transform="translate(-772.378 -227.991)"/>
      </g>
      <rect id="Прямоугольник_2" data-name="Прямоугольник 2" width="2.174" height="16.226" transform="translate(0.417 15.467) rotate(-77.98)"/>
      <rect id="Прямоугольник_3" data-name="Прямоугольник 3" width="2.174" height="12.593" transform="translate(5.802 7.578) rotate(-78.05)"/>
    </g>
  </g>
</svg>
